<svg xmlns="http://www.w3.org/2000/svg" style="display: none;">
  <symbol id="icon-Craftwork" viewBox="0 0 32 32">
<path fill="#85aa9f" style="fill: var(--color1, #85aa9f)" d="M32 16c0 8.837-7.163 16-16 16s-16-7.163-16-16c0-8.837 7.163-16 16-16s16 7.163 16 16z"></path>
<path fill="#fcfcfc" style="fill: var(--color2, #fcfcfc)" d="M16.354 15.2c4.755-3.586 4.965-5.76 0-9.6-5.060 3.922-4.408 6.001 0 9.6zM15.2 16.446c-3.586-4.755-5.76-4.965-9.6 0 3.922 5.060 6.001 4.408 9.6 0zM27.2 16.446c-3.586-4.755-5.76-4.965-9.6 0 3.922 5.060 6.001 4.408 9.6 0zM16.354 27.2c4.755-3.586 4.965-5.76 0-9.6-5.060 3.922-4.408 6.001 0 9.6z"></path>
</symbol>
  <symbol id="icon-User" viewBox="0 0 32 32">
<path fill="#fcfcfc" style="fill: var(--color1, #fcfcfc)" opacity="0.7" d="M16 0c2.122 0 4.157 0.843 5.657 2.343s2.343 3.535 2.343 5.657-0.843 4.157-2.343 5.657c-1.5 1.5-3.535 2.343-5.657 2.343s-4.157-0.843-5.657-2.343c-1.5-1.5-2.343-3.535-2.343-5.657s0.843-4.157 2.343-5.657c1.5-1.5 3.535-2.343 5.657-2.343zM16 32c0 0 16 0 16-4 0-4.8-7.8-10-16-10s-16 5.2-16 10c0 4 16 4 16 4z"></path>
</symbol>
<symbol id="icon-arrow-right" viewBox="0 0 32 32">
<path stroke-linejoin="round" stroke-linecap="round" stroke-miterlimit="4" stroke-width="3.2" d="M1.866 16h25.6M19.2 6.666l9.334 9.334-9.334 9.334"></path>
</symbol>
<symbol id="icon-Burger" viewBox="0 0 46 32">
<path stroke-linejoin="miter" stroke-linecap="round" stroke-miterlimit="4" stroke-width="3.4286" d="M8.671 5.073h35.329M8.671 24.467h35.329M19.602 14.77h24.398"></path>
</symbol>
<symbol id="icon-x" viewBox="0 0 32 32">
<path fill="none" stroke="#fcfcfc" style="stroke: var(--color1, #fcfcfc)" stroke-linejoin="round" stroke-linecap="round" stroke-miterlimit="4" stroke-width="3" d="M24 8l-16 16M8 8l16 16"></path>
</symbol>
<symbol id="icon-UserGreen" viewBox="0 0 32 32">
<path fill="#85aa9f" style="fill: var(--color1, #85aa9f)" d="M16 0c4.418 0 8 3.582 8 8s-3.582 8-8 8v0c-4.418 0-8-3.582-8-8s3.582-8 8-8v0zM16 32s16 0 16-4c0-4.8-7.8-10-16-10s-16 5.2-16 10c0 4 16 4 16 4z"></path>
</symbol>
<symbol id="icon-eye" viewBox="0 0 32 32">
<path stroke-linejoin="round" stroke-linecap="round" stroke-miterlimit="4" stroke-width="3.2" d="M1.333 16s5.334-10.667 14.667-10.667 14.667 10.667 14.667 10.667-5.334 10.667-14.667 10.667-14.667-10.667-14.667-10.667"></path>
<path stroke-linejoin="round" stroke-linecap="round" stroke-miterlimit="4" stroke-width="3.2" d="M16 20c2.209 0 4-1.791 4-4s-1.791-4-4-4v0c-2.209 0-4 1.791-4 4s1.791 4 4 4v0"></path>
</symbol>
<symbol id="icon-eye-off" viewBox="0 0 32 32">
<path stroke-linejoin="round" stroke-linecap="round" stroke-miterlimit="4" stroke-width="3.2" d="M23.92 23.92c-2.175 1.671-4.923 2.695-7.908 2.747l-0.012 0c-9.333 0-14.667-10.667-14.667-10.667 1.714-3.151 3.978-5.79 6.689-7.877l0.058-0.043M13.2 5.653c0.833-0.203 1.788-0.32 2.771-0.32 0.010 0 0.020 0 0.030 0h-0.002c9.333 0 14.667 10.667 14.667 10.667-0.871 1.615-1.826 3.008-2.91 4.289l0.030-0.036M18.827 18.827c-0.732 0.786-1.772 1.276-2.927 1.276-1.67 0-3.1-1.024-3.698-2.478l-0.010-0.027c-0.185-0.444-0.292-0.959-0.292-1.5 0-1.154 0.489-2.194 1.27-2.924l0.002-0.002M1.333 1.333l29.334 29.334"></path>
</symbol>
<symbol id="icon-search" viewBox="0 0 32 32">
<path stroke-linejoin="round" stroke-linecap="round" stroke-miterlimit="4" stroke-width="2.4" d="M14.667 25.333c0.039 0 0.085 0.001 0.131 0.001 5.891 0 10.667-4.776 10.667-10.667s-4.776-10.667-10.667-10.667c-0.046 0-0.092 0-0.138 0.001l0.007-0c-5.835 0.074-10.537 4.821-10.537 10.666s4.702 10.593 10.53 10.666l0.007 0M28 28l-5.8-5.8"></path>
</symbol>
<symbol id="icon-array" viewBox="0 0 32 32">
<path fill="none" d="M16 22.003l-10-10 1.4-1.4 8.6 8.6 8.6-8.6 1.4 1.4z"></path>
<path fill="none" d="M16 22.003l-1.696 1.696 1.696 1.699 1.696-1.696zM6 12.003l-1.696-1.696-1.698 1.696 1.696 1.696zM7.4 10.603l1.696-1.696-1.696-1.698-1.696 1.696zM16 19.203l-1.696 1.696 1.696 1.699 1.696-1.696zM24.6 10.603l1.696-1.696-1.696-1.698-1.696 1.696zM26 12.003l1.696 1.696 1.698-1.696-1.696-1.696zM17.696 20.307l-10-10-3.392 3.392 10 10zM7.696 13.699l1.402-1.398-3.395-3.395-1.4 1.4zM5.702 12.301l8.6 8.6 3.395-3.395-8.6-8.6zM17.698 20.901l8.6-8.6-3.395-3.395-8.6 8.6zM22.902 12.301l1.4 1.4 3.395-3.395-1.4-1.4zM24.302 10.306l-10 10 3.395 3.395 10-10z"></path>
</symbol>
<symbol id="icon-plus" viewBox="0 0 32 32">
<path fill="none" stroke="#85aa9f" style="stroke: var(--color1, #85aa9f)" stroke-linejoin="round" stroke-linecap="round" stroke-miterlimit="4" stroke-width="2.4" d="M16 6.667v18.666M6.667 16h18.666"></path>
</symbol>
<symbol id="icon-arrright" viewBox="0 0 32 32">
<path fill="none" stroke="#85aa9f" style="stroke: var(--color1, #85aa9f)" stroke-linejoin="round" stroke-linecap="round" stroke-miterlimit="4" stroke-width="2.4" d="M5.333 16h21.334M26.667 16l-5.334-5.333M26.667 16l-5.334 5.333"></path>
</symbol>
<symbol id="icon-x-close" viewBox="0 0 32 32">
<path fill="none" stroke="#fcfcfc" style="stroke: var(--color1, #fcfcfc)" stroke-linejoin="round" stroke-linecap="round" stroke-miterlimit="4" stroke-width="3.3333" d="M24 8l-16 16M8 8l16 16"></path>
</symbol>
<symbol id="icon-united-kingdom" viewBox="0 0 32 32">
<path fill="#f0f0f0" style="fill: var(--color1, #f0f0f0)" d="M16 32c8.837 0 16-7.163 16-16s-7.163-16-16-16-16 7.163-16 16 7.163 16 16 16z"></path>
<path fill="#0052b4" style="fill: var(--color2, #0052b4)" d="M3.307 6.259c-1.221 1.576-2.169 3.434-2.73 5.453l-0.027 0.113h8.325zM31.448 11.826c-0.588-2.132-1.534-3.99-2.783-5.604l0.027 0.037-5.568 5.566zM0.551 20.174c0.588 2.132 1.535 3.991 2.784 5.605l-0.027-0.037 5.567-5.568zM25.742 3.307c-1.577-1.222-3.436-2.169-5.456-2.73l-0.112-0.027v8.323zM6.259 28.693c1.634 1.257 3.52 2.205 5.566 2.757v-8.323zM11.826 0.551c-2.132 0.588-3.99 1.535-5.604 2.784l0.037-0.027 5.566 5.567zM20.174 31.449c2.132-0.588 3.991-1.535 5.605-2.784l-0.037 0.027-5.568-5.567zM23.125 20.174l5.568 5.568c1.221-1.577 2.168-3.436 2.729-5.456l0.027-0.113z"></path>
<path fill="#d80027" style="fill: var(--color3, #d80027)" d="M31.865 13.913h-13.778v-13.777c-0.627-0.086-1.351-0.136-2.087-0.136s-1.46 0.049-2.17 0.145l0.083-0.009v13.777h-13.777c-0.086 0.627-0.136 1.351-0.136 2.087s0.049 1.46 0.145 2.17l-0.009-0.083h13.777v13.777c0.627 0.086 1.351 0.136 2.087 0.136s1.46-0.049 2.17-0.145l-0.083 0.009v-13.776h13.777c0.086-0.627 0.136-1.351 0.136-2.087s-0.049-1.46-0.145-2.17l0.009 0.083z"></path>
<path fill="#d80027" style="fill: var(--color3, #d80027)" d="M20.174 20.174l7.141 7.141q0.491-0.494 0.941-1.029l-6.113-6.112zM11.825 20.174l-7.139 7.141q0.493 0.494 1.026 0.941l6.113-6.112zM11.826 11.826l-7.141-7.141q-0.491 0.494-0.941 1.029l6.113 6.112zM20.174 11.826l7.141-7.141c-0.321-0.321-0.657-0.628-1.004-0.921l-0.024-0.020-6.112 6.112z"></path>
</symbol>
<symbol id="icon-ukraine" viewBox="0 0 32 32">
<path fill="#ffda44" style="fill: var(--color4, #ffda44)" d="M16 32c8.837 0 16-7.163 16-16s-7.163-16-16-16-16 7.163-16 16 7.163 16 16 16z"></path>
<path fill="#338af3" style="fill: var(--color5, #338af3)" d="M0 16c0-8.837 7.163-16 16-16s16 7.163 16 16z"></path>
</symbol>
<symbol id="icon-edit" viewBox="0 0 32 32">
<path fill="none" stroke="#85aa9f" style="stroke: var(--color1, #85aa9f)" stroke-linejoin="round" stroke-linecap="round" stroke-miterlimit="4" stroke-width="2.6" d="M22.666 4c0.683-0.683 1.625-1.105 2.667-1.105 2.083 0 3.772 1.689 3.772 3.772 0 1.042-0.422 1.984-1.105 2.667v0l-18 18-7.334 2 2-7.334z"></path>
</symbol>
<symbol id="icon-trash" viewBox="0 0 32 32">
<path fill="none" stroke="#85aa9f" style="stroke: var(--color1, #85aa9f)" stroke-linejoin="round" stroke-linecap="round" stroke-miterlimit="4" stroke-width="2.6" d="M4 8h24M25.334 8v18.666c0 0.001 0 0.001 0 0.002 0 1.472-1.194 2.666-2.666 2.666-0.001 0-0.001 0-0.002 0h-13.332c-0.001 0-0.001 0-0.002 0-1.472 0-2.666-1.194-2.666-2.666 0-0.001 0-0.001 0-0.002v0-18.666M10.666 8v-2.666c0-0.001 0-0.001 0-0.002 0-1.472 1.194-2.666 2.666-2.666 0.001 0 0.001 0 0.002 0h5.332c0.001 0 0.001 0 0.002 0 1.472 0 2.666 1.194 2.666 2.666 0 0.001 0 0.001 0 0.002v-0 2.666M13.334 14.666v8M18.666 14.666v8"></path>
</symbol>
<symbol id="icon-one-arr" viewBox="0 0 32 32">
<path d="M20.12 24l1.88-1.88-6.106-6.12 6.106-6.12-1.88-1.88-8 8z"></path>
</symbol>
<symbol id="icon-two-arr" viewBox="0 0 32 32">
<path d="M23.452 24l1.88-1.88-6.106-6.12 6.106-6.12-1.88-1.88-8 8z"></path>
<path d="M14.666 24l1.88-1.88-6.106-6.12 6.106-6.12-1.88-1.88-8 8z"></path>
</symbol>
<symbol id="icon-Craftwork-two" viewBox="0 0 32 32">
<path fill="#fcfcfc" style="fill: var(--color1, #fcfcfc)" d="M32 16c0 8.837-7.163 16-16 16s-16-7.163-16-16c0-8.837 7.163-16 16-16s16 7.163 16 16z"></path>
<path fill="#85aa9f" style="fill: var(--color2, #85aa9f)" d="M16.354 15.2c4.755-3.586 4.965-5.76 0-9.6-5.060 3.922-4.408 6.001 0 9.6zM15.2 16.446c-3.586-4.755-5.76-4.965-9.6 0 3.922 5.060 6.001 4.408 9.6 0zM27.2 16.446c-3.586-4.755-5.76-4.965-9.6 0 3.922 5.060 6.001 4.408 9.6 0zM16.354 27.2c4.755-3.586 4.965-5.76 0-9.6-5.060 3.922-4.408 6.001 0 9.6z"></path>
</symbol>
</svg>