<svg xmlns="http://www.w3.org/2000/svg" style="display: none;">
  <symbol id="icon-Craftwork" viewBox="0 0 32 32">
<path fill="#85aa9f" style="fill: var(--color1, #85aa9f)" d="M32 16c0 8.837-7.163 16-16 16s-16-7.163-16-16c0-8.837 7.163-16 16-16s16 7.163 16 16z"></path>
<path fill="#fcfcfc" style="fill: var(--color2, #fcfcfc)" d="M16.354 15.2c4.755-3.586 4.965-5.76 0-9.6-5.060 3.922-4.408 6.001 0 9.6zM15.2 16.446c-3.586-4.755-5.76-4.965-9.6 0 3.922 5.060 6.001 4.408 9.6 0zM27.2 16.446c-3.586-4.755-5.76-4.965-9.6 0 3.922 5.060 6.001 4.408 9.6 0zM16.354 27.2c4.755-3.586 4.965-5.76 0-9.6-5.060 3.922-4.408 6.001 0 9.6z"></path>
</symbol>
  <symbol id="icon-User" viewBox="0 0 32 32">
<path fill="#fcfcfc" style="fill: var(--color1, #fcfcfc)" opacity="0.7" d="M16 0c2.122 0 4.157 0.843 5.657 2.343s2.343 3.535 2.343 5.657-0.843 4.157-2.343 5.657c-1.5 1.5-3.535 2.343-5.657 2.343s-4.157-0.843-5.657-2.343c-1.5-1.5-2.343-3.535-2.343-5.657s0.843-4.157 2.343-5.657c1.5-1.5 3.535-2.343 5.657-2.343zM16 32c0 0 16 0 16-4 0-4.8-7.8-10-16-10s-16 5.2-16 10c0 4 16 4 16 4z"></path>
</symbol>
<symbol id="icon-arrow-right" viewBox="0 0 32 32">
<path stroke-linejoin="round" stroke-linecap="round" stroke-miterlimit="4" stroke-width="3.2" d="M1.866 16h25.6M19.2 6.666l9.334 9.334-9.334 9.334"></path>
</symbol>
<symbol id="icon-Burger" viewBox="0 0 46 32">
<path stroke-linejoin="miter" stroke-linecap="round" stroke-miterlimit="4" stroke-width="3.4286" d="M8.671 5.073h35.329M8.671 24.467h35.329M19.602 14.77h24.398"></path>
</symbol>
<symbol id="icon-x" viewBox="0 0 32 32">
<path fill="none" stroke="#fcfcfc" style="stroke: var(--color1, #fcfcfc)" stroke-linejoin="round" stroke-linecap="round" stroke-miterlimit="4" stroke-width="3" d="M24 8l-16 16M8 8l16 16"></path>
</symbol>
<symbol id="icon-UserGreen" viewBox="0 0 32 32">
<path fill="#85aa9f" style="fill: var(--color1, #85aa9f)" d="M16 0c4.418 0 8 3.582 8 8s-3.582 8-8 8v0c-4.418 0-8-3.582-8-8s3.582-8 8-8v0zM16 32s16 0 16-4c0-4.8-7.8-10-16-10s-16 5.2-16 10c0 4 16 4 16 4z"></path>
</symbol>
<symbol id="icon-eye" viewBox="0 0 32 32">
<path stroke-linejoin="round" stroke-linecap="round" stroke-miterlimit="4" stroke-width="3.2" d="M1.333 16s5.334-10.667 14.667-10.667 14.667 10.667 14.667 10.667-5.334 10.667-14.667 10.667-14.667-10.667-14.667-10.667"></path>
<path stroke-linejoin="round" stroke-linecap="round" stroke-miterlimit="4" stroke-width="3.2" d="M16 20c2.209 0 4-1.791 4-4s-1.791-4-4-4v0c-2.209 0-4 1.791-4 4s1.791 4 4 4v0"></path>
</symbol>
<symbol id="icon-eye-off" viewBox="0 0 32 32">
<path stroke-linejoin="round" stroke-linecap="round" stroke-miterlimit="4" stroke-width="3.2" d="M23.92 23.92c-2.175 1.671-4.923 2.695-7.908 2.747l-0.012 0c-9.333 0-14.667-10.667-14.667-10.667 1.714-3.151 3.978-5.79 6.689-7.877l0.058-0.043M13.2 5.653c0.833-0.203 1.788-0.32 2.771-0.32 0.010 0 0.020 0 0.030 0h-0.002c9.333 0 14.667 10.667 14.667 10.667-0.871 1.615-1.826 3.008-2.91 4.289l0.030-0.036M18.827 18.827c-0.732 0.786-1.772 1.276-2.927 1.276-1.67 0-3.1-1.024-3.698-2.478l-0.010-0.027c-0.185-0.444-0.292-0.959-0.292-1.5 0-1.154 0.489-2.194 1.27-2.924l0.002-0.002M1.333 1.333l29.334 29.334"></path>
</symbol>
<symbol id="icon-search" viewBox="0 0 32 32">
<path stroke-linejoin="round" stroke-linecap="round" stroke-miterlimit="4" stroke-width="2.4" d="M14.667 25.333c0.039 0 0.085 0.001 0.131 0.001 5.891 0 10.667-4.776 10.667-10.667s-4.776-10.667-10.667-10.667c-0.046 0-0.092 0-0.138 0.001l0.007-0c-5.835 0.074-10.537 4.821-10.537 10.666s4.702 10.593 10.53 10.666l0.007 0M28 28l-5.8-5.8"></path>
</symbol>
<symbol id="icon-array" viewBox="0 0 32 32">
<path fill="none" d="M16 22.003l-10-10 1.4-1.4 8.6 8.6 8.6-8.6 1.4 1.4z"></path>
<path fill="none" d="M16 22.003l-1.696 1.696 1.696 1.699 1.696-1.696zM6 12.003l-1.696-1.696-1.698 1.696 1.696 1.696zM7.4 10.603l1.696-1.696-1.696-1.698-1.696 1.696zM16 19.203l-1.696 1.696 1.696 1.699 1.696-1.696zM24.6 10.603l1.696-1.696-1.696-1.698-1.696 1.696zM26 12.003l1.696 1.696 1.698-1.696-1.696-1.696zM17.696 20.307l-10-10-3.392 3.392 10 10zM7.696 13.699l1.402-1.398-3.395-3.395-1.4 1.4zM5.702 12.301l8.6 8.6 3.395-3.395-8.6-8.6zM17.698 20.901l8.6-8.6-3.395-3.395-8.6 8.6zM22.902 12.301l1.4 1.4 3.395-3.395-1.4-1.4zM24.302 10.306l-10 10 3.395 3.395 10-10z"></path>
</symbol>
<symbol id="icon-plus" viewBox="0 0 32 32">
<path fill="none" stroke="#85aa9f" style="stroke: var(--color1, #85aa9f)" stroke-linejoin="round" stroke-linecap="round" stroke-miterlimit="4" stroke-width="2.4" d="M16 6.667v18.666M6.667 16h18.666"></path>
</symbol>
<symbol id="icon-arrright" viewBox="0 0 32 32">
<path fill="none" stroke="#85aa9f" style="stroke: var(--color1, #85aa9f)" stroke-linejoin="round" stroke-linecap="round" stroke-miterlimit="4" stroke-width="2.4" d="M5.333 16h21.334M26.667 16l-5.334-5.333M26.667 16l-5.334 5.333"></path>
</symbol>
</svg>